<svg xmlns="http://www.w3.org/2000/svg" enable-background="new 0 0 24 24" viewBox="0 0 24 24" id="Instagram">
  <linearGradient id="a" x1="190.01" x2="200.11" y1="350.809" y2="339.953" gradientTransform="matrix(0 -1.982 -1.8439 0 648.853 398.6)" gradientUnits="userSpaceOnUse">
    <stop offset="0" stop-color="#9ae45f" class="stopColorffdd55 svgShape"></stop>
    <stop offset=".5" stop-color="#d85b53" class="stopColorff543e svgShape"></stop>
    <stop offset="1" stop-color="#d45985" class="stopColorc837ab svgShape"></stop>
  </linearGradient>
  <path fill="url(#a)" d="m12.004.5c-6.066 0-7.228-.158-8.745.597-1.396.694-2.399 2.007-2.653 3.766-.078.537-.101.647-.105 3.395-.02 10.161-.154 10.92.577 12.434.609 1.263 1.771 2.212 3.14 2.566 1.095.282 1.823.242 7.761.242 4.977 0 6.526.089 7.817-.244 1.378-.356 2.519-1.29 3.14-2.571.738-1.522.564-2.598.564-8.692 0-5.836.197-7.135-.576-8.709-.264-.537-.558-.939-.984-1.349-1.731-1.654-3.794-1.43-6.193-1.435h-3.743z"></path>
  <path fill="#26d7fe" d="M12 18c-3.309 0-6-2.691-6-6s2.691-6 6-6 6 2.691 6 6-2.691 6-6 6zm0-11c-2.757 0-5 2.243-5 5s2.243 5 5 5 5-2.243 5-5-2.243-5-5-5zM18.5 7c-.827 0-1.5-.673-1.5-1.5s.673-1.5 1.5-1.5 1.5.673 1.5 1.5-.673 1.5-1.5 1.5zm-.5-1.5c0 .662 1 .661 1 0 0-.276-1-.661-1 0z" class="colorffffff svgShape"></path>
  <circle cx="12" cy="12" r="3.5" fill="none"></circle>
  <path d="m19.25 24h-14.5c-2.619 0-4.75-2.131-4.75-4.75v-14.5c0-2.619 2.131-4.75 4.75-4.75h14.5c2.619 0 4.75 2.131 4.75 4.75v14.5c0 2.619-2.131 4.75-4.75 4.75zm-14.5-22.5c-1.792 0-3.25 1.458-3.25 3.25v14.5c0 1.792 1.458 3.25 3.25 3.25h14.5c1.792 0 3.25-1.458 3.25-3.25v-14.5c0-1.792-1.458-3.25-3.25-3.25z" fill="#000000" class="color000000 svgShape"></path>
  <path d="M12 18.13c-3.38 0-6.13-2.75-6.13-6.13s2.75-6.13 6.13-6.13 6.13 2.75 6.13 6.13-2.75 6.13-6.13 6.13zm0-10.76c-2.553 0-4.63 2.077-4.63 4.63s2.077 4.63 4.63 4.63 4.63-2.077 4.63-4.63-2.077-4.63-4.63-4.63zM18.359 7.37c-.953 0-1.729-.775-1.729-1.729 0-.953.775-1.728 1.729-1.728.953 0 1.728.775 1.728 1.728s-.775 1.729-1.728 1.729zm0-1.957c-.126 0-.229.103-.229.228 0 .251.456.252.457 0 0-.125-.103-.228-.228-.228z" fill="#000000" class="color000000 svgShape"></path>
</svg>
